<?xml version="1.0" encoding="UTF-8"?>
<svg id="Layer_1" xmlns="http://www.w3.org/2000/svg" version="1.1" xmlns:xlink="http://www.w3.org/1999/xlink" viewBox="0 0 2462 2462">
  <!-- Generator: Adobe Illustrator 29.1.0, SVG Export Plug-In . SVG Version: 2.1.0 Build 142)  -->
  <defs>
    <style>
      .st0 {
        fill: #1e003d;
        fill-rule: evenodd;
        isolation: isolate;
        opacity: .3;
      }

      .st1 {
        fill: none;
      }

      .st2 {
        fill: url(#Dégradé_sans_nom_2);
      }

      .st3 {
        clip-path: url(#clippath-1);
      }

      .st4 {
        fill: url(#Dégradé_sans_nom);
        stroke: blue;
        stroke-miterlimit: 10;
      }

      .st5 {
        clip-path: url(#clippath);
      }
    </style>
    <clipPath id="clippath">
      <path class="st1" d="M582.9,1481.5c90.2,258.7,222.6,499.2,362.3,441.3,131.2-54.3,139.3-111.2,262.9-142.6,123.6,31.4,131.7,88.3,262.9,142.6,191.7,79.4,369.7-402.5,443.6-722.9,21.9-95,29.3-181.4,24.8-258.2l-216.9,216.9c3.4,11,5.1,22.5,5.1,34.2,0,64-51.9,115.9-115.9,115.9s-74.9-19.5-96.2-51.1h-457.3c-20.9,33.6-57.9,54.8-98.5,54.8s-40.1-5.3-57.4-15.2l-319.4,184.4h0ZM1058.8,613.8c-116.4-53.4-235.5-131.5-387.5-43.8-152,87.6-243.7,309.4-169.8,629.8,15.6,67.4,35.7,141.9,59.6,216.8l420-251.7,213.2,7.6h236l156.8-7.6,111.1-82.2,167.5-167.5,60.7-70.4c-27.9-130.9-95-224.8-181.8-274.8-152-87.6-271.1-9.6-387.5,43.8-93.3,42.8-205.2,42.8-298.5,0h.2Z"/>
    </clipPath>
    <linearGradient id="Dégradé_sans_nom" data-name="Dégradé sans nom" x1="730.3" y1="-1446.5" x2="1805.8" y2="-2554.6" gradientTransform="translate(0 3158.1)" gradientUnits="userSpaceOnUse">
      <stop offset="0" stop-color="#0037ff"/>
      <stop offset="0" stop-color="#03f"/>
      <stop offset=".7" stop-color="#0089ff"/>
      <stop offset="1" stop-color="#008dff"/>
    </linearGradient>
    <clipPath id="clippath-1">
      <path class="st1" d="M2058.4,630.3c48.2,0,87.4,39.1,87.4,87.4s-39.1,87.3-87.4,87.3-21.1-1.9-30.6-5.5l-338.9,338.9c6.5,12.2,10.2,26.2,10.2,40.9,0,48.2-39.1,87.4-87.4,87.4s-65.8-21-79.5-51.1h-491.4c-12.9,32.1-44.3,54.8-81.1,54.8s-40.9-7.7-56.1-20.4l-413,238.4c.2,2.6.3,5.2.3,7.8,0,48.2-39.1,87.3-87.4,87.3s-87.3-39.1-87.3-87.3,39.1-87.3,87.3-87.3,36.8,6.1,51.2,16.6l417.6-241.1v-1.3c0-48.2,39.1-87.3,87.3-87.3s63.2,19.3,77.7,47.5h494.8c13.8-30.2,44.2-51.1,79.5-51.1s12.9.7,19.1,2.1l345.8-345.8c-3.6-9.5-5.5-19.8-5.5-30.6,0-48.2,39.1-87.4,87.4-87.4v-.2Z"/>
    </clipPath>
    <linearGradient id="Dégradé_sans_nom_2" data-name="Dégradé sans nom 2" x1="415.1" y1="-955.4" x2="2004.7" y2="-3090.3" gradientTransform="translate(0 3158.1)" gradientUnits="userSpaceOnUse">
      <stop offset="0" stop-color="blue"/>
      <stop offset=".5" stop-color="aqua"/>
    </linearGradient>
  </defs>
  <g class="st5">
    <rect class="st4" x="427.7" y="482.4" width="1516.2" height="1519.8"/>
  </g>
  <path class="st0" d="M540.5,1348.7c6.6,22.5,13.5,45.2,20.7,68l420-251.7,213.2,7.6h236l156.8-7.6,111.1-82.2,167.5-167.5,60.7-70.4c-4.8-22.3-10.6-43.6-17.6-63.7l-288.4,288.4c-3-.2-6-.3-8.9-.3-39,0-74.9,19.5-96.2,51.1h-462.3c-21.6-29.5-56.2-47.5-93.6-47.5-58.7,0-107.2,43.6-114.9,100.2l-304.3,175.7h.2Z"/>
  <g class="st3">
    <rect class="st2" x="316.2" y="630.3" width="1829.5" height="953.3"/>
  </g>
  <path class="st0" d="M1058.2,1257.5c-20.9,33.6-57.9,54.8-98.5,54.8s-40.1-5.3-57.4-15.2l-242.2,139.8c4.8-2.7,240.4-117,240.4-117,0,0,89.8,63.2,178.9-32l419.5-.8s60.1,91.4,188.8,43.4c0,0,92.1-51.8,76.9-141.6l171.8-119.7c4.5-45,5.4-87.6,3-127.6l-216.9,216.9c3.4,11,5.1,22.5,5.1,34.2,0,64-51.9,115.9-115.9,115.9s-74.9-19.5-96.2-51.1h-457.3Z"/>
</svg>